<svg width="138" height="166" viewBox="0 0 138 166" fill="none" xmlns="http://www.w3.org/2000/svg">
<g clip-path="url(#clip0)">
<path d="M87.3384 29.6864H50.6923C49.8572 29.6874 49.0566 30.0177 48.4661 30.6049C47.8756 31.192 47.5434 31.9881 47.5424 32.8185V113.803L47.1224 113.93L38.1325 116.668C37.7065 116.797 37.2463 116.753 36.853 116.545C36.4597 116.337 36.1654 115.982 36.0347 115.559L9.29398 28.7071C9.16384 28.2835 9.2082 27.8258 9.41729 27.4346C9.62638 27.0435 9.9831 26.7509 10.4091 26.6212L24.2624 22.4033L64.4239 10.18L78.2772 5.96217C78.488 5.89765 78.7095 5.87511 78.9291 5.89583C79.1487 5.91654 79.3621 5.98012 79.5569 6.08291C79.7518 6.1857 79.9243 6.32568 80.0647 6.49486C80.2051 6.66404 80.3106 6.85908 80.375 7.06883L87.2103 29.2688L87.3384 29.6864Z" fill="#F2F2F2"/>
<path d="M95.3356 29.2696L87.0975 2.51351C86.9604 2.0677 86.7364 1.65312 86.4381 1.29345C86.1398 0.93378 85.7732 0.636076 85.3592 0.417346C84.9452 0.198615 84.4919 0.0631445 84.0252 0.0186801C83.5585 -0.0257843 83.0876 0.0216288 82.6393 0.158205L63.1623 6.08613L23.003 18.3116L3.52607 24.2416C2.62127 24.5178 1.86367 25.1398 1.41956 25.9709C0.975451 26.802 0.881116 27.7743 1.15727 28.6745L29.3133 120.116C29.5377 120.842 29.9903 121.478 30.6048 121.93C31.2194 122.383 31.9635 122.627 32.7279 122.628C33.0817 122.628 33.4335 122.575 33.7715 122.471L47.123 118.408L47.543 118.278V117.842L47.123 117.969L33.6477 122.072C32.849 122.314 31.9864 122.232 31.249 121.842C30.5117 121.453 29.9598 120.788 29.7145 119.995L1.56054 28.5513C1.43897 28.1581 1.3966 27.7449 1.43586 27.3354C1.47511 26.9259 1.59521 26.5281 1.78929 26.1649C1.98337 25.8016 2.24762 25.4799 2.5669 25.2183C2.88617 24.9568 3.2542 24.7604 3.64992 24.6404L23.1269 18.7104L63.2863 6.48704L82.7633 0.557024C83.0634 0.465943 83.3755 0.419503 83.6893 0.419213C84.3628 0.420716 85.0181 0.63661 85.5592 1.03527C86.1003 1.43393 86.4989 1.99441 86.6965 2.63462L94.8967 29.2696L95.0269 29.6872H95.4637L95.3356 29.2696Z" fill="#3F3D56"/>
<path d="M26.7623 26.6894C26.3576 26.6891 25.9636 26.5599 25.6381 26.3206C25.3127 26.0814 25.0729 25.7447 24.954 25.36L22.2492 16.5753C22.1765 16.3393 22.1513 16.0914 22.1749 15.8458C22.1986 15.6001 22.2707 15.3615 22.3872 15.1435C22.5036 14.9256 22.6621 14.7326 22.8536 14.5756C23.045 14.4185 23.2657 14.3005 23.5031 14.2283L60.4493 2.98138C60.9286 2.83595 61.4463 2.88555 61.8889 3.11929C62.3314 3.35302 62.6626 3.75179 62.8098 4.22808L65.5146 13.0129C65.6608 13.4895 65.6108 14.0042 65.3758 14.4442C65.1407 14.8843 64.7397 15.2136 64.2608 15.36L27.3145 26.6069C27.1355 26.6615 26.9495 26.6893 26.7623 26.6894V26.6894Z" fill="#7563AD"/>
<path d="M40.9312 9.38668C43.2507 9.38668 45.1311 7.51699 45.1311 5.21061C45.1311 2.90423 43.2507 1.03455 40.9312 1.03455C38.6116 1.03455 36.7313 2.90423 36.7313 5.21061C36.7313 7.51699 38.6116 9.38668 40.9312 9.38668Z" fill="#6C63FF"/>
<path d="M40.9312 7.85505C42.4 7.85505 43.5907 6.67111 43.5907 5.21064C43.5907 3.75017 42.4 2.56622 40.9312 2.56622C39.4624 2.56622 38.2717 3.75017 38.2717 5.21064C38.2717 6.67111 39.4624 7.85505 40.9312 7.85505Z" fill="white"/>
<path d="M127.55 121.56H56.5722C56.099 121.559 55.6453 121.372 55.3106 121.039C54.976 120.707 54.7878 120.256 54.7872 119.785V35.2197C54.7878 34.7491 54.976 34.298 55.3106 33.9652C55.6452 33.6325 56.0989 33.4453 56.5722 33.4448H127.55C128.024 33.4454 128.477 33.6325 128.812 33.9653C129.146 34.298 129.335 34.7491 129.335 35.2197V119.785C129.335 120.256 129.146 120.707 128.812 121.039C128.477 121.372 128.024 121.559 127.55 121.56V121.56Z" fill="#E6E6E6"/>
<path d="M94.8961 29.2687H50.6923C49.7459 29.2701 48.8387 29.6445 48.1695 30.3099C47.5003 30.9753 47.1237 31.8774 47.1224 32.8184V117.968L47.5424 117.841V32.8184C47.5434 31.988 47.8756 31.192 48.4661 30.6048C49.0566 30.0177 49.8572 29.6874 50.6923 29.6863H95.0264L94.8961 29.2687ZM133.43 29.2687H50.6923C49.7459 29.2701 48.8387 29.6445 48.1695 30.3099C47.5003 30.9753 47.1237 31.8774 47.1224 32.8184V128.45C47.1237 129.391 47.5003 130.293 48.1695 130.959C48.8387 131.624 49.7459 131.999 50.6923 132H133.43C134.376 131.999 135.284 131.624 135.953 130.959C136.622 130.293 136.999 129.391 137 128.45V32.8184C136.999 31.8774 136.622 30.9753 135.953 30.3099C135.284 29.6445 134.376 29.2701 133.43 29.2687V29.2687ZM136.58 128.45C136.579 129.281 136.247 130.077 135.656 130.664C135.066 131.251 134.265 131.581 133.43 131.582H50.6923C49.8572 131.581 49.0566 131.251 48.4661 130.664C47.8756 130.077 47.5434 129.281 47.5424 128.45V32.8184C47.5434 31.988 47.8756 31.192 48.4661 30.6048C49.0566 30.0177 49.8572 29.6874 50.6923 29.6863H133.43C134.265 29.6874 135.066 30.0177 135.656 30.6048C136.247 31.192 136.579 31.988 136.58 32.8184V128.45Z" fill="#3F3D56"/>
<path d="M111.381 38.4561H72.7418C72.2407 38.4556 71.7603 38.2574 71.406 37.9051C71.0517 37.5528 70.8524 37.0751 70.8518 36.5769V27.3895C70.8524 26.8913 71.0517 26.4137 71.406 26.0613C71.7603 25.709 72.2407 25.5109 72.7418 25.5103H111.381C111.882 25.5109 112.362 25.709 112.716 26.0613C113.071 26.4137 113.27 26.8913 113.271 27.3895V36.5769C113.27 37.0751 113.071 37.5528 112.717 37.9051C112.362 38.2574 111.882 38.4556 111.381 38.4561V38.4561Z" fill="#7563AD"/>
<path d="M92.0612 26.1367C94.3807 26.1367 96.2611 24.2671 96.2611 21.9607C96.2611 19.6543 94.3807 17.7846 92.0612 17.7846C89.7417 17.7846 87.8613 19.6543 87.8613 21.9607C87.8613 24.2671 89.7417 26.1367 92.0612 26.1367Z" fill="#6C63FF"/>
<path d="M92.0612 24.5043C93.474 24.5043 94.6193 23.3655 94.6193 21.9607C94.6193 20.5559 93.474 19.4171 92.0612 19.4171C90.6484 19.4171 89.5031 20.5559 89.5031 21.9607C89.5031 23.3655 90.6484 24.5043 92.0612 24.5043Z" fill="white"/>
</g>
<path d="M12.1465 153.452C12.1465 155.573 11.5576 157.196 10.3799 158.321C9.20215 159.44 7.50586 160 5.29102 160H1.69629V147.15H5.66895C7.71387 147.15 9.30469 147.701 10.4414 148.803C11.5781 149.904 12.1465 151.454 12.1465 153.452ZM9.93164 153.522C9.93164 150.446 8.49316 148.908 5.61621 148.908H3.79688V158.233H5.29102C8.38477 158.233 9.93164 156.663 9.93164 153.522ZM20.7773 160L20.3643 158.646H20.2939C19.8252 159.238 19.3535 159.643 18.8789 159.859C18.4043 160.07 17.7949 160.176 17.0508 160.176C16.0957 160.176 15.3486 159.918 14.8096 159.402C14.2764 158.887 14.0098 158.157 14.0098 157.214C14.0098 156.212 14.3818 155.456 15.126 154.946C15.8701 154.437 17.0039 154.158 18.5273 154.111L20.2061 154.059V153.54C20.2061 152.919 20.0596 152.456 19.7666 152.151C19.4795 151.841 19.0312 151.686 18.4219 151.686C17.9238 151.686 17.4463 151.759 16.9893 151.905C16.5322 152.052 16.0928 152.225 15.6709 152.424L15.0029 150.947C15.5303 150.672 16.1074 150.464 16.7344 150.323C17.3613 150.177 17.9531 150.104 18.5098 150.104C19.7461 150.104 20.6777 150.373 21.3047 150.912C21.9375 151.451 22.2539 152.298 22.2539 153.452V160H20.7773ZM17.7012 158.594C18.4512 158.594 19.0518 158.386 19.5029 157.97C19.96 157.548 20.1885 156.959 20.1885 156.203V155.359L18.9404 155.412C17.9678 155.447 17.2588 155.611 16.8135 155.904C16.374 156.191 16.1543 156.634 16.1543 157.231C16.1543 157.665 16.2832 158.002 16.541 158.242C16.7988 158.477 17.1855 158.594 17.7012 158.594ZM28.7578 158.506C29.2617 158.506 29.7656 158.427 30.2695 158.269V159.824C30.041 159.924 29.7451 160.006 29.3818 160.07C29.0244 160.141 28.6523 160.176 28.2656 160.176C26.3086 160.176 25.3301 159.145 25.3301 157.082V151.844H24.0029V150.93L25.4268 150.174L26.1299 148.117H27.4043V150.279H30.1729V151.844H27.4043V157.047C27.4043 157.545 27.5273 157.914 27.7734 158.154C28.0254 158.389 28.3535 158.506 28.7578 158.506ZM38.3027 160L37.8896 158.646H37.8193C37.3506 159.238 36.8789 159.643 36.4043 159.859C35.9297 160.07 35.3203 160.176 34.5762 160.176C33.6211 160.176 32.874 159.918 32.335 159.402C31.8018 158.887 31.5352 158.157 31.5352 157.214C31.5352 156.212 31.9072 155.456 32.6514 154.946C33.3955 154.437 34.5293 154.158 36.0527 154.111L37.7314 154.059V153.54C37.7314 152.919 37.585 152.456 37.292 152.151C37.0049 151.841 36.5566 151.686 35.9473 151.686C35.4492 151.686 34.9717 151.759 34.5146 151.905C34.0576 152.052 33.6182 152.225 33.1963 152.424L32.5283 150.947C33.0557 150.672 33.6328 150.464 34.2598 150.323C34.8867 150.177 35.4785 150.104 36.0352 150.104C37.2715 150.104 38.2031 150.373 38.8301 150.912C39.4629 151.451 39.7793 152.298 39.7793 153.452V160H38.3027ZM35.2266 158.594C35.9766 158.594 36.5771 158.386 37.0283 157.97C37.4854 157.548 37.7139 156.959 37.7139 156.203V155.359L36.4658 155.412C35.4932 155.447 34.7842 155.611 34.3389 155.904C33.8994 156.191 33.6797 156.634 33.6797 157.231C33.6797 157.665 33.8086 158.002 34.0664 158.242C34.3242 158.477 34.7109 158.594 35.2266 158.594ZM58.2627 160H55.6875L49.3682 149.761H49.2979L49.3418 150.332C49.4238 151.422 49.4648 152.418 49.4648 153.32V160H47.5576V147.15H50.1064L56.4082 157.337H56.4609C56.4492 157.202 56.4258 156.713 56.3906 155.869C56.3555 155.02 56.3379 154.357 56.3379 153.883V147.15H58.2627V160ZM70.0576 155.122C70.0576 156.71 69.6504 157.949 68.8359 158.84C68.0215 159.73 66.8877 160.176 65.4346 160.176C64.5264 160.176 63.7236 159.971 63.0264 159.561C62.3291 159.15 61.793 158.562 61.418 157.794C61.043 157.026 60.8555 156.136 60.8555 155.122C60.8555 153.546 61.2598 152.315 62.0684 151.431C62.877 150.546 64.0166 150.104 65.4873 150.104C66.8936 150.104 68.0068 150.558 68.8271 151.466C69.6475 152.368 70.0576 153.587 70.0576 155.122ZM62.9824 155.122C62.9824 157.366 63.8115 158.488 65.4697 158.488C67.1104 158.488 67.9307 157.366 67.9307 155.122C67.9307 152.901 67.1045 151.791 65.4521 151.791C64.585 151.791 63.9551 152.078 63.5625 152.652C63.1758 153.227 62.9824 154.05 62.9824 155.122ZM76.0605 158.506C76.5645 158.506 77.0684 158.427 77.5723 158.269V159.824C77.3438 159.924 77.0479 160.006 76.6846 160.07C76.3271 160.141 75.9551 160.176 75.5684 160.176C73.6113 160.176 72.6328 159.145 72.6328 157.082V151.844H71.3057V150.93L72.7295 150.174L73.4326 148.117H74.707V150.279H77.4756V151.844H74.707V157.047C74.707 157.545 74.8301 157.914 75.0762 158.154C75.3281 158.389 75.6562 158.506 76.0605 158.506ZM86.502 160H84.4189V147.15H91.6699V148.926H86.502V152.942H91.3447V154.727H86.502V160ZM102.401 155.122C102.401 156.71 101.994 157.949 101.18 158.84C100.365 159.73 99.2314 160.176 97.7783 160.176C96.8701 160.176 96.0674 159.971 95.3701 159.561C94.6729 159.15 94.1367 158.562 93.7617 157.794C93.3867 157.026 93.1992 156.136 93.1992 155.122C93.1992 153.546 93.6035 152.315 94.4121 151.431C95.2207 150.546 96.3604 150.104 97.8311 150.104C99.2373 150.104 100.351 150.558 101.171 151.466C101.991 152.368 102.401 153.587 102.401 155.122ZM95.3262 155.122C95.3262 157.366 96.1553 158.488 97.8135 158.488C99.4541 158.488 100.274 157.366 100.274 155.122C100.274 152.901 99.4482 151.791 97.7959 151.791C96.9287 151.791 96.2988 152.078 95.9062 152.652C95.5195 153.227 95.3262 154.05 95.3262 155.122ZM111.639 160L111.349 158.726H111.243C110.956 159.177 110.546 159.531 110.013 159.789C109.485 160.047 108.882 160.176 108.202 160.176C107.024 160.176 106.146 159.883 105.565 159.297C104.985 158.711 104.695 157.823 104.695 156.634V150.279H106.778V156.273C106.778 157.018 106.931 157.577 107.235 157.952C107.54 158.321 108.018 158.506 108.668 158.506C109.535 158.506 110.171 158.248 110.575 157.732C110.985 157.211 111.19 156.341 111.19 155.122V150.279H113.265V160H111.639ZM124.761 160H122.687V154.023C122.687 153.273 122.534 152.714 122.229 152.345C121.931 151.976 121.453 151.791 120.797 151.791C119.924 151.791 119.285 152.049 118.881 152.564C118.477 153.08 118.274 153.944 118.274 155.157V160H116.209V150.279H117.826L118.116 151.554H118.222C118.515 151.091 118.931 150.733 119.47 150.481C120.009 150.229 120.606 150.104 121.263 150.104C123.595 150.104 124.761 151.29 124.761 153.663V160ZM130.913 160.176C129.7 160.176 128.754 159.736 128.074 158.857C127.395 157.979 127.055 156.745 127.055 155.157C127.055 153.563 127.397 152.324 128.083 151.439C128.774 150.549 129.729 150.104 130.948 150.104C132.226 150.104 133.198 150.575 133.866 151.519H133.972C133.872 150.821 133.822 150.271 133.822 149.866V146.324H135.896V160H134.279L133.919 158.726H133.822C133.16 159.692 132.19 160.176 130.913 160.176ZM131.467 158.506C132.316 158.506 132.935 158.269 133.321 157.794C133.708 157.313 133.907 156.537 133.919 155.465V155.175C133.919 153.95 133.72 153.08 133.321 152.564C132.923 152.049 132.299 151.791 131.449 151.791C130.723 151.791 130.163 152.087 129.771 152.679C129.378 153.265 129.182 154.103 129.182 155.192C129.182 156.271 129.372 157.094 129.753 157.662C130.134 158.225 130.705 158.506 131.467 158.506Z" fill="#7563AD"/>
<defs>
<clipPath id="clip0">
<rect width="136" height="132" fill="white" transform="translate(1)"/>
</clipPath>
</defs>
</svg>
