<svg width="100" height="100" viewBox="0 0 100 100" fill="none" xmlns="http://www.w3.org/2000/svg">
<rect width="100" height="100" rx="20" fill="#C487B1"/>
<rect width="97.6471" height="97.6471" rx="20" fill="white"/>
<rect x="12.9412" y="48.8235" width="37.0588" height="5.88235" fill="url(#paint0_linear)"/>
<rect x="50" y="62.9412" width="37.0588" height="3.52941" fill="url(#paint1_linear)"/>
<rect x="50" y="68.8235" width="37.0588" height="3.52941" fill="url(#paint2_linear)"/>
<rect x="50" y="74.7059" width="37.0588" height="3.52941" fill="url(#paint3_linear)"/>
<rect x="50" y="80.5882" width="37.0588" height="3.52941" fill="url(#paint4_linear)"/>
<rect x="12.9412" y="60" width="13.5294" height="5.88235" fill="url(#paint5_linear)"/>
<path d="M25.0938 37.2941H22.832L14.2422 24.1457V37.2941H11.9805V20.2316H14.2422L22.8555 33.4386V20.2316H25.0938V37.2941ZM38.7344 29.4074H31.3398V35.4543H39.9297V37.2941H29.0898V20.2316H39.8125V22.0832H31.3398V27.5676H38.7344V29.4074ZM46.4102 31.9152L46.7383 34.1652L47.2188 32.1379L50.5938 20.2316H52.4922L55.7852 32.1379L56.2539 34.2004L56.6172 31.9035L59.2656 20.2316H61.5273L57.3906 37.2941H55.3398L51.8242 24.8605L51.5547 23.5597L51.2852 24.8605L47.6406 37.2941H45.5898L41.4648 20.2316H43.7148L46.4102 31.9152ZM69.0625 29.6886C67.1328 29.134 65.7266 28.4543 64.8438 27.6496C63.9688 26.8371 63.5312 25.8371 63.5312 24.6496C63.5312 23.3058 64.0664 22.1965 65.1367 21.3215C66.2148 20.4386 67.6133 19.9972 69.332 19.9972C70.5039 19.9972 71.5469 20.2238 72.4609 20.6769C73.3828 21.1301 74.0938 21.7551 74.5938 22.5519C75.1016 23.3488 75.3555 24.2199 75.3555 25.1652H73.0938C73.0938 24.134 72.7656 23.3254 72.1094 22.7394C71.4531 22.1457 70.5273 21.8488 69.332 21.8488C68.2227 21.8488 67.3555 22.0949 66.7305 22.5871C66.1133 23.0715 65.8047 23.7472 65.8047 24.6144C65.8047 25.3097 66.0977 25.8996 66.6836 26.384C67.2773 26.8605 68.2812 27.298 69.6953 27.6965C71.1172 28.0949 72.2266 28.5363 73.0234 29.0207C73.8281 29.4972 74.4219 30.0558 74.8047 30.6965C75.1953 31.3371 75.3906 32.091 75.3906 32.9582C75.3906 34.341 74.8516 35.4504 73.7734 36.2863C72.6953 37.1144 71.2539 37.5285 69.4492 37.5285C68.2773 37.5285 67.1836 37.3058 66.168 36.8605C65.1523 36.4074 64.3672 35.7902 63.8125 35.009C63.2656 34.2277 62.9922 33.341 62.9922 32.3488H65.2539C65.2539 33.3801 65.6328 34.1965 66.3906 34.798C67.1562 35.3918 68.1758 35.6886 69.4492 35.6886C70.6367 35.6886 71.5469 35.4465 72.1797 34.9621C72.8125 34.4777 73.1289 33.8176 73.1289 32.9816C73.1289 32.1457 72.8359 31.5011 72.25 31.048C71.6641 30.5871 70.6016 30.134 69.0625 29.6886Z" fill="url(#paint6_linear)"/>
<defs>
<linearGradient id="paint0_linear" x1="-2.35294" y1="54.7059" x2="64.7059" y2="54.7059" gradientUnits="userSpaceOnUse">
<stop stop-color="#C986B1"/>
<stop offset="1" stop-color="#7563AD"/>
</linearGradient>
<linearGradient id="paint1_linear" x1="68.5294" y1="62.9412" x2="68.5294" y2="66.4706" gradientUnits="userSpaceOnUse">
<stop stop-color="#C986B1"/>
<stop offset="1" stop-color="#7563AD"/>
</linearGradient>
<linearGradient id="paint2_linear" x1="68.5294" y1="68.8235" x2="68.5294" y2="72.3529" gradientUnits="userSpaceOnUse">
<stop stop-color="#C986B1"/>
<stop offset="1" stop-color="#7563AD"/>
</linearGradient>
<linearGradient id="paint3_linear" x1="68.5294" y1="74.7059" x2="68.5294" y2="78.2353" gradientUnits="userSpaceOnUse">
<stop stop-color="#C986B1"/>
<stop offset="1" stop-color="#7563AD"/>
</linearGradient>
<linearGradient id="paint4_linear" x1="68.5294" y1="80.5882" x2="68.5294" y2="84.1176" gradientUnits="userSpaceOnUse">
<stop stop-color="#C986B1"/>
<stop offset="1" stop-color="#7563AD"/>
</linearGradient>
<linearGradient id="paint5_linear" x1="9.24322e-07" y1="62.9412" x2="47.6471" y2="62.9412" gradientUnits="userSpaceOnUse">
<stop stop-color="#C986B1"/>
<stop offset="1" stop-color="#7563AD"/>
</linearGradient>
<linearGradient id="paint6_linear" x1="-17.8547" y1="33.5294" x2="112.465" y2="33.5294" gradientUnits="userSpaceOnUse">
<stop stop-color="#D194B5"/>
<stop offset="1" stop-color="#7A66AF"/>
</linearGradient>
</defs>
</svg>
